<svg version="1.1" id="Layer_1" xmlns="http://www.w3.org/2000/svg" xmlns:xlink="http://www.w3.org/1999/xlink" x="0px" y="0px"
	 width="379px" height="600.266px" viewBox="0 0 379 600.266" enable-background="new 0 0 379 600.266" xml:space="preserve">
<path fill-rule="evenodd" clip-rule="evenodd" fill="#fff" d="M0,242.266c2.344,0.109,2.391-1.938,3.084-3.334
	c6.395-12.893,9.226-26.491,9.023-40.924c-0.137-9.804,0.98-19.532,4.708-28.862c6.892-17.249,26.898-22.042,40.437-9.497
	c4.619,4.281,7.759,9.3,9.692,15.412c3.316,10.477,5.041,21.399,9.064,31.657c0.85,2.167,1.991,4.218,2.896,6.365
	c3.022,7.179,7.639,10.657,16.168,10.139c15.396-0.932,30.056,2.949,43.878,9.84c1.336,0.666,2.727,1.26,4.147,1.707
	c3.363,1.061,5.347,0.17,5.869-3.715c1.052-7.814,2.47-8.668,9.844-6.117c2.318,0.803,3.142-0.244,3.52-2.078
	c0.747-3.626,1.277-7.502-0.328-10.832c-5.18-10.741-4.088-22.102-3.874-33.388c0.194-10.299-0.67-20.595,0.271-30.908
	c0.349-3.813-2.281-6.778-4.753-9.601c-7.234-8.259-15.15-15.923-21.355-25.082c-6.98-10.303-7.307-20.757-0.622-31.244
	c4.301-6.748,8.455-13.59,11.625-20.949c3.055-7.09,1.698-10.759-4.943-14.469c-1.307-0.73-2.682-1.383-3.869-2.278
	c-3.912-2.949-4.416-6.269-1.006-9.666c5.816-5.793,11.924-11.292,20.85-11.585c5.387-0.177,8.913-2.927,11.344-7.652
	c2.772-5.389,6.506-10.04,11.584-13.54c2.865-1.975,5.459-2.537,8.189,0.22c0.767,0.774,1.955,1.381,3.033,1.559
	c6.976,1.15,9.817,5.848,11.462,12.18c2.16,8.324,3.771,9.019,12.109,6.899c5.396-1.372,10.705-3.987,16.278-0.113
	c2.672,1.857,3.36,3.546,1.14,6.01c-8.631,9.579-17.264,19.202-31.188,20.82c-11.89,1.382-21.327,7.988-30.875,14.356
	c-1.222,0.815-2.474,1.875-3.181,3.124c-3.353,5.925-6.654,11.888-9.698,17.974c-1.479,2.959-1.397,6.114,0.685,8.999
	c4.121,5.713,9.037,10.699,14.381,15.223c3.38,2.861,5.055,2.255,6.42-1.883c0.822-2.487,1.672-4.672,4.811-4.936
	c2.094-0.176,2.359-2.104,2.816-3.681c0.51-1.753,0.75-3.601,1.41-5.289c0.66-1.685,1.57-3.612,3.667-3.646
	c1.996-0.032,2.328,2.053,3.188,3.439c1.576,2.54,3.07,5.177,4.98,7.452c3.227,3.842,6.178,3.606,8.605-0.823
	c2.5-4.561,5.482-8.734,8.68-12.798c7.15-9.092,18.432-10.497,27.873-3.667c7.88,5.699,11.555,14.008,14.559,22.726
	c1.063,3.086-0.896,4.947-3.665,6.123c-6.692,2.843-12.236,6.959-16.039,13.413c-3.339,5.667-9.622,7.274-15.27,9.176
	c-4.679,1.575-5.647,2.361-3.082,6.724c5.316,9.044,10.769,18.011,16.27,26.945c1.271,2.063,1.731,4.052,1.804,6.52
	c0.262,8.852,2.479,17.432,4.406,26.03c1.928,8.598,3.867,17.198,6.062,25.73c1.451,5.643,3.709,6.262,7.819,2.072
	c3.303-3.365,6.638-4.311,11.218-2.824c8.252,2.678,11.172,0.697,12.799-7.894c0.232-1.23-0.163-3.039,1.556-3.202
	c1.182-0.112,1.739,1.421,2.265,2.424c1.982,3.785,2.506,7.582-0.283,11.258c-2.771,3.652-6.227,5.445-10.883,3.977
	c-1.269-0.4-2.545-0.807-3.848-1.061c-5.924-1.15-10.797,3.451-10.074,9.475c0.445,3.697,3.125,4.244,6.15,4.469
	c4.867,0.359,9.217,1.779,11.432,6.658c1.951,4.295,0.461,7.002-4.012,6.213c-7.82-1.383-12.561,2.139-16.597,8.17
	c-2.005,2.996-2.425,5.68-0.841,8.83c2.57,5.111,6.58,8.754,11.566,11.365c3.129,1.637,5.668,0.588,8.039-1.836
	c3.928-4.014,5.362-3.92,8.187,1.084c2.062,3.65,4.175,5.711,8.711,4.117c2.354-0.828,3.931,1.059,5.062,3.117
	c1.829,3.33,2.044,7.055,2.409,10.648c0.477,4.691,2.97,5.066,6.555,3.826c1.882-0.652,3.64-1.664,5.519-2.324
	c3.997-1.404,6.107-0.199,5.002,3.646c-1.941,6.75,0.984,9.732,6.65,12.076c4.971,2.053,6.279,7.564,9.352,11.422
	c1.348,1.693-0.438,2.41-1.829,2.234c-2.628-0.332-5.216-0.984-7.817-1.518c-1.297-0.266-2.674-0.803-3.615,0.637
	c-1.078,1.646,0.087,2.795,1.033,3.961c4.592,5.654,9.492,6.902,16.373,4.32c2.598-0.975,6.132-3.199,7.875-0.988
	c1.883,2.391-1.713,4.855-3.029,7.227c-0.725,1.305-1.89,2.395-2.461,3.748c-1.069,2.537-0.971,4.67,2.66,4.707
	c1.131,0.01,2.72-0.4,3.183,0.838c1.579,4.227,4.015,6.479,8.941,5.861c1.655-0.207,1.267,2.145,0.691,3.215
	c-2.505,4.67-3.662,8.373,3.146,10.734c3.575,1.24,3.124,6.721-0.277,8.762c-1.849,1.109-4.396,1.934-3.475,4.668
	c0.885,2.627,3.154,1.748,5.081,1.062c2.091-0.744,3.002,0.613,3.911,2.111c3.723,6.135,4.883,12.75,3.253,19.691
	c-1.15,4.902-0.663,9.016,3.004,12.877c4.044,4.258,5.858,9.609,5.655,15.561c-0.143,4.215,1.183,8.219,1.785,12.328
	c0.459,3.127,0.016,5.158-3.877,3.041c-3.943-2.146-5.533,0.086-6,3.688c-0.517,3.986,0.061,7.568,3.651,10.223
	c3.315,2.449,4.882,6.256,6.87,9.719c0.74,1.289,1.559,2.645,3.432,2.381c0,1,0,2,0,3c-3.68,2.426-7.844,1.625-11.66,1.105
	c-6.095-0.826-10.268,1.346-13.646,6.174c-2.099,2.998-4.007,6.166-6.516,8.852c-5.578,5.967-11.312,11.648-18.701,15.582
	c-12.585,6.697-23.928,15.189-33.496,25.822c-5.58,6.199-12.021,7.174-19.459,4.33c-1.715-0.656-3.48-1.15-5.234-1.68
	c-1.284-0.389-3.105-0.68-3.506-1.734c-3.197-8.4-12.352-14.746-8.795-25.521c1.047-3.172,3.118-5.451,5.35-7.701
	c12.164-12.264,11.551-9.314,6.242-26.383c-5.883-18.916-8.316-38.332-9.915-57.922c-0.507-6.201-2.287-10.072-5.67-10.617
	c-3.177-0.512-9.498,4.236-11.032,8.289c-0.481,1.27-0.426,2.615-0.592,3.934c-1.342,10.66-0.91,21.258,1.039,31.807
	c1.497,8.1,1.072,16.289,0.91,24.436c-0.393,19.596,2.305,38.869,5.564,58.1c0.869,5.123,2.805,9.922,4.408,14.832
	c3.885,11.895,7.348,23.902,7.069,36.613c-0.044,1.988,0.141,4.041-1.36,5.684c-1.666,0-3.334,0-5,0
	c-1.129-1.066-2.701-0.932-4.025-1.475c-3.011-1.029-5.936-2.301-8.611-3.982c-6.664-4.186-11.668-9.357-10.723-18.182
	c0.491-4.598-0.839-8.869-3.405-12.795c-3.058-4.678-3.542-10.25-3.351-15.434c0.72-19.387-3.863-37.533-10.523-55.553
	c-4.66-12.609-7.682-25.824-11.889-38.633c-1.064-3.238-0.586-6.617-0.893-9.924c-0.867-9.326-3.873-18.234-5.443-27.428
	c-0.42-2.457-2.223-3.982-4.287-5.26c-3.544-2.195-7.282-4.053-10.78-6.324c-1.607-1.043-3.372-1.592-5.225-0.855
	c-7.273,2.887-12.533-0.588-17.377-5.412c-1.784-1.775-3.355-3.771-4.41-6.031c-2.421-5.184-5.749-8.416-12.01-8.936
	c-5.396-0.449-8.396-6.328-7.85-13.27c0.184-2.326,0.885-4.584,1.168-6.898c0.292-2.391,0.848-4.859-0.557-7.246
	c-2.643,0.912-3.176,3.16-3.876,5.1c-3.849,10.68-8.029,21.094-15.247,30.156c-4.658,5.848-3.693,8.461,3.234,11.08
	c8.064,3.045,14.365,7.428,16.374,16.543c0.821,3.729,3.942,6.557,5.553,10.012c1.79,3.842,4.671,8.125,1.974,12.207
	c-3.018,4.566-7.921,2.211-11.991,1.268c-8.474-1.967-16.272-5.143-20.382-13.717c-0.51-1.066-1.383-1.881-2.573-2.236
	c-1.17-0.35-2.365-0.4-3.282,0.502c-1.055,1.037-0.49,2.221,0.123,3.203c2.326,3.723,5.506,6.711,8.854,9.443
	c6.613,5.395,13.132,11.109,18.146,17.836c9.751,13.08,16.779,27.836,22.775,43.016c1.033,2.619,1.153,5.549,1.467,8.355
	c0.477,4.266-1.634,6.859-5.838,6.996c-11.443,0.371-27.807-9.992-27.522-20.828c0.073-2.781-1.444-5.156-3.232-7.156
	c-2.983-3.338-4.688-7.188-5.622-11.523c-0.94-4.369-3.508-7.896-6.566-11.033c-5.586-5.727-11.197-11.432-16.982-16.957
	c-4.761-4.547-10.254-7.973-16.701-9.66c-3.816-0.998-7.037-2.84-9.594-5.941c-3.196-3.879-3.812-7.826-1.645-12.494
	c4.453-9.598,3.716-11.498-6.011-15.891c-5.774-2.607-11.646-5.023-17.046-8.346c-11.312-6.959-12.957-18.857-4.096-28.752
	c2.557-2.855,5.003-5.807,7.485-8.723c5.958-6.998,6.745-15.297,5.72-24.037c-1.479-12.605-4.978-24.822-7.069-37.307
	c-4.031-24.061,1.648-45.188,18.803-62.928c4.438-4.59,4.342-8.355-0.021-13.059c-3.669-3.956-6.904-3.772-8.692,1.186
	c-3.267,9.059-6.964,17.957-9.132,27.438c-2.73,11.943-3.15,24.488-9.477,35.562c-3.543,6.205-7.827,11.543-13.507,15.807
	c-2.16,0.932-4.372,1.764-6.453,2.891c-0.426,0.207-0.872,0.359-1.33,0.477c-2.167-0.062-5.275,1.176-4.418-3.143
	c0.16-0.424,0.375-0.826,0.628-1.203c1.156-1.322,2.181-2.719,2.407-4.543c1.348-3.412,2.266-6.98,3.748-10.34
	c1.472-2.164,1.111-4.504,0.627-6.85c-0.137-0.422-0.236-0.85-0.327-1.279c-0.243-1.527-0.384-3.088-1.636-4.227
	c-1.16-1.227-2.51-2.102-4.096-2.725c-4.594-1.803-4.939-2.67-3.235-7.34c0.171-0.467,0.376-0.918,0.565-1.377
	C9.491,252.92,8.67,250.637,0,246.266C0,244.932,0,243.6,0,242.266z"/>
</svg>
