<?xml version="1.0" encoding="utf-8"?>
<!-- Generator: Adobe Illustrator 16.0.0, SVG Export Plug-In . SVG Version: 6.00 Build 0)  -->
<!DOCTYPE svg PUBLIC "-//W3C//DTD SVG 1.1//EN" "http://www.w3.org/Graphics/SVG/1.1/DTD/svg11.dtd">
<svg version="1.1" id="Layer_1" xmlns="http://www.w3.org/2000/svg" xmlns:xlink="http://www.w3.org/1999/xlink" x="0px" y="0px"
	 width="161.599px" height="112.185px" viewBox="0 0 161.599 112.185" enable-background="new 0 0 161.599 112.185"
	 xml:space="preserve">
<path opacity="0.5" fill-rule="evenodd" clip-rule="evenodd" fill="#E6E7E8" d="M132.775,107.578c1.833,0.57,1.685,1.77,1.084,3.175
	c-2.124,0.212-4.341,0.462-6.562,0.648c-2.43,0.202-4.861,0.414-7.297,0.497c-3.458,0.119-6.922,0.202-10.381,0.154
	c-2.489-0.035-4.979-0.264-7.462-0.489c-2.441-0.222-4.914-0.365-7.296-0.889c-1.783-0.392-3.532-1.176-5.142-2.062
	c-3.24-1.785-6.375-3.761-9.555-5.654c-0.99-0.591-2.028-1.113-2.967-1.775c-0.877-0.618-1.805-0.774-2.824-0.694
	c-0.195,0.016-0.393-0.008-0.587,0.004c-0.712,0.046-1.814-0.162-2.057,0.201c-0.566,0.847-0.947,1.959-0.994,2.982
	c-0.127,2.81-0.044,5.629-0.044,8.509c-4.866,0-9.525,0-14.222,0c-2.24-4.532-4.512-9.092-6.733-13.676
	c-0.255-0.526-0.587-0.788-1.087-0.857c-1.3-0.181-2.606-0.317-3.967-0.479c0.634,2.722,1.263,5.414,1.938,8.308
	c-2.104-2.178-4.034-4.174-5.989-6.197c-2.283,2.183-4.324,4.135-6.497,6.213c0-0.406-0.049-0.669,0.007-0.907
	c0.53-2.237,1.039-4.48,1.642-6.697c0.192-0.707-0.039-0.91-0.638-1.08c-2.421-0.682-4.834-1.393-7.248-2.098
	c-0.075-0.021-0.133-0.099-0.311-0.238c0.862-0.245,1.646-0.472,2.434-0.689c1.844-0.51,3.693-1.005,5.529-1.544
	c0.127-0.037,0.265-0.409,0.226-0.586c-0.517-2.321-1.068-4.635-1.602-6.953c-0.058-0.252-0.066-0.516,0.067-0.862
	c1.985,1.895,3.971,3.789,5.981,5.708c2.021-1.896,4.056-3.806,6.091-5.714c0.086,0.038,0.172,0.077,0.259,0.116
	c-0.626,2.63-1.252,5.259-1.896,7.968c1.281-0.168,2.542-0.333,3.927-0.515c-0.083-1.51-0.124-2.952-0.249-4.388
	c-0.243-2.791,0.554-5.4,1.276-8.037c0.895-3.269,1.773-6.545,2.527-9.849c0.208-0.909-0.03-1.929-0.109-2.894
	c-0.079-0.96-0.244-1.914-0.318-2.874c-0.135-1.741-0.208-3.486-0.351-5.227c-0.198-2.423-0.442-4.842-0.655-7.264
	c-0.077-0.883-0.108-1.77-0.182-2.653c-0.214-2.59-0.441-5.18-0.659-7.77c-0.067-0.799-0.123-1.599-0.177-2.397
	c-0.17-2.516-0.324-5.032-0.51-7.547c-0.208-2.813-0.443-5.626-0.67-8.438c-0.165-2.039-0.242-4.092-0.527-6.114
	c-0.327-2.321,0.601-4.207,1.717-6.091c1.236-2.084,2.885-3.833,4.865-5.128c2.104-1.375,4.438-2.435,7.019-2.66
	c0.978-0.085,1.976-0.082,2.953,0.007c0.845,0.077,1.471-0.263,1.968-0.822c0.858-0.969,1.858-1.359,3.157-1.237
	c1.082,0.103,2.183,0.045,3.273,0.014c0.793-0.023,1.527-0.018,2.107,0.672c0.688,0.817,1.704,0.695,2.639,0.876
	c1.789,0.345,3.593,0.718,5.302,1.33c1.457,0.521,2.84,1.311,4.163,2.132c1.93,1.199,3.341,2.951,4.71,4.744
	c1.678,2.197,2.4,4.788,3.12,7.368c0.203,0.727-0.049,1.59-0.132,2.386c-0.145,1.398-0.321,2.793-0.483,4.189
	c-0.219,1.889-0.447,3.775-0.651,5.665c-0.137,1.264-0.225,2.532-0.361,3.796c-0.201,1.863-0.434,3.723-0.638,5.586
	c-0.135,1.235-0.236,2.475-0.368,3.71c-0.211,1.974-0.445,3.945-0.654,5.92c-0.131,1.236-0.225,2.478-0.354,3.715
	c-0.152,1.451-0.381,2.897-0.468,4.353c-0.053,0.905,0.069,1.825,0.161,2.734c0.136,1.343,0.318,2.68,0.477,4.021
	c0.229,1.943,0.315,3.917,0.74,5.816c0.2,0.894,1.028,1.657,1.604,2.456c1.942,2.694,3.902,5.376,5.848,8.067
	c1.11,1.535,2.051,3.232,3.358,4.574c1.148,1.179,2.683,1.99,4.078,2.917c3.253,2.163,7.024,2.851,10.74,3.665
	c0.83,0.182,1.709,0.162,2.566,0.198c3.818,0.162,7.426,1.19,10.816,2.878c2.492,1.241,3.656,3.476,4.123,6.195
	c0.404,2.352-0.342,4.329-1.553,6.227C133.563,106.665,133.196,107.05,132.775,107.578z"/>
<text transform="matrix(1 0 0 1 0 78.2393)" fill="#F1F2F2" font-family="'AintNothingFancy'" font-size="50">Explore</text>
</svg>
